<svg xmlns="http://www.w3.org/2000/svg" viewBox="0 0 655.09 124.51"><defs><style>.cls-1{fill:#dbdfe3;fill-rule:evenodd;}</style></defs><g id="레이어_2" data-name="레이어 2"><g id="레이어_1-2" data-name="레이어 1"><g id="레이어_2-2" data-name="레이어 2"><g id="Layer_26" data-name="Layer 26"><polygon class="cls-1" points="65.33 0 87.25 39.02 131.09 47.35 100.84 80.23 106.1 124.51 65.33 105.66 24.99 124.51 30.25 80.23 0 47.35 43.84 39.02 65.33 0"/></g></g><g id="레이어_2-3" data-name="레이어 2"><g id="Layer_26-2" data-name="Layer 26"><polygon class="cls-1" points="196.33 0 218.25 39.02 262.09 47.35 231.84 80.23 237.1 124.51 196.33 105.66 155.99 124.51 161.25 80.23 131 47.35 174.84 39.02 196.33 0"/></g></g><g id="레이어_2-4" data-name="레이어 2"><g id="Layer_26-3" data-name="Layer 26"><polygon class="cls-1" points="327.33 0 349.25 39.02 393.09 47.35 362.84 80.23 368.1 124.51 327.33 105.66 286.99 124.51 292.25 80.23 262 47.35 305.84 39.02 327.33 0"/></g></g><g id="레이어_2-5" data-name="레이어 2"><g id="Layer_26-4" data-name="Layer 26"><polygon class="cls-1" points="458.33 0 480.25 39.02 524.09 47.35 493.84 80.23 499.1 124.51 458.33 105.66 417.99 124.51 423.25 80.23 393 47.35 436.84 39.02 458.33 0"/></g></g><g id="레이어_2-6" data-name="레이어 2"><g id="Layer_26-5" data-name="Layer 26"><polygon class="cls-1" points="589.33 0 611.25 39.02 655.09 47.35 624.84 80.23 630.1 124.51 589.33 105.66 548.99 124.51 554.25 80.23 524 47.35 567.84 39.02 589.33 0"/></g></g></g></g></svg>