<svg xmlns="http://www.w3.org/2000/svg" viewBox="0 0 568.82 86.25"><defs><style>.cls-1{fill:#fff;}</style></defs><g id="레이어_2" data-name="레이어 2"><g id="레이어_1-2" data-name="레이어 1"><path class="cls-1" d="M267.76,39.44c12.46,7,16,13.79,14,26.18C280.37,74.13,275.59,80,267.24,82c-6.05,1.45-12.44,1.79-18.7,2.06-7.8.33-15.63,0-23.44.14-3.54.08-5.09-.9-5.07-4.69.12-24.54.07-49.08,0-73.61,0-2.32.08-4.42,3.24-4.31,13.76.45,27.58.32,41.26,1.6C273.94,4.06,278,9,279.13,16.86c1.53,11.12-1.2,17.22-9.67,21.59C269,38.68,268.62,38.94,267.76,39.44Zm-26.36,29c6.62-1,14.18,2.71,18-4.48,1.61-3,1.42-8.74-.5-11.47-4.22-6-11.26-3.11-17.49-3.69Zm.11-33.62c3.83,0,7.49.4,11-.1,4.76-.66,7-4.16,6.76-9.32-.22-4.55-2.59-6.87-7.71-7.18-3.25-.2-6.52,0-10.07,0Z"/><path class="cls-1" d="M126.72,1.05c6.29.4,12.62.46,18.86,1.29C157.84,4,166,10.62,168.88,22.82a83,83,0,0,1-.21,40.6c-3.48,13.31-12.79,19.85-29.2,20.6-8.8.41-17.62,0-26.43.15-2.74,0-3.88-.92-3.87-3.73q.09-37.8,0-75.6c0-2.54,1-3.53,3.55-3.46,4.65.12,9.31,0,14,0ZM131,20.28v45c10.64,2.13,16.27-1.11,17.61-11.18A95.68,95.68,0,0,0,149,32C148,22.11,141.53,18.26,131,20.28Z"/><path class="cls-1" d="M0,.26c14.61,1,28.71,1.4,42.64,3.11,8.64,1.06,14.47,7,15.81,15.69a71.62,71.62,0,0,1,.5,20c-1,7.73-5.85,13.49-14.14,16.64L60.15,84c-7.31,0-13.7.24-20-.19-1.42-.09-3.11-2.33-3.94-4-2.93-5.72-5.76-11.52-8.2-17.45-1.49-3.61-3.57-4.9-8.06-3.3,0,6.21-.23,12.74.08,19.25.21,4.47-1.13,6.27-5.88,5.85-4.58-.41-9.22-.09-14.11-.09ZM20.21,42.13c6.21-.65,13.47,2.15,16.62-4.19,2-3.93,1.91-10.5-.15-14.36-3.27-6.15-10.43-3.48-16.47-3.94Z"/><path class="cls-1" d="M364.74,43c-.05-9.68,1-19.07,5.3-27.93,2.88-5.92,7.2-10.55,13.43-12.5,19.82-6.2,41.08-2.2,45.32,24.29,2.26,14.06,2.64,28.22-3,41.82-4.47,10.78-13,15.77-24.37,16.64-1.82.14-3.66,0-5.49,0-14.54-.12-23.27-6.31-28-20a45,45,0,0,1-2.11-8.6C365.26,52.18,365.09,47.57,364.74,43Zm44.46-.1c-.58-4.81-.93-10.57-2-16.18a9.54,9.54,0,0,0-10.23-8.16c-4.57.21-8.12,3.08-8.48,8.71a270,270,0,0,0-.37,30.37c.33,6.59,4.32,9.79,9.71,9.76,5.21,0,8.94-3.51,9.95-9.83C408.47,53,408.67,48.4,409.2,42.88Z"/><path class="cls-1" d="M357.37,42.84c-.93,9.79-1.27,19.5-6.47,27.89-2.66,4.29-6.46,8.6-10.81,11C320,92.88,297,82.48,293.33,60.13a107.51,107.51,0,0,1-.4-32.82c3.66-24.47,20.41-30.56,43-25.69,9.47,2.05,14.68,9,17.06,17.62C355.06,26.93,355.94,35,357.37,42.84Zm-21.74.67c-.73-5.85-1.21-11.41-2.16-16.9-.86-5-4.19-7.8-9.29-8s-8.2,2.7-9.29,7.3a74.93,74.93,0,0,0,0,34.19c1.06,4.69,4.31,7.34,9.31,7.3s8.19-2.85,9.14-7.51C334.42,54.4,334.9,48.84,335.63,43.51Z"/><path class="cls-1" d="M465.91,31.35c4.9-8.39,9.9-16.72,14.64-25.2,1.9-3.41,4.26-5.06,8.33-4.81,5.09.3,10.22.07,16.14.07-.89,1.75-1.38,2.84-2,3.86-5.47,9.41-10.81,18.9-16.54,28.16-2.09,3.36-2.16,6-.35,9.52,6.17,11.83,12,23.82,18,35.76.64,1.27,1.13,2.61,2,4.62-7.28,0-13.87.23-20.43-.18-1.37-.09-3-2.35-3.8-4-5.47-11-10.76-22.16-17.2-33.19v6c0,9.22-.12,18.45,0,27.67.07,3.41-1.06,4.76-4.58,4.55-4.15-.24-8.32-.18-12.47,0-2.94.12-4.15-.86-4.13-3.93q.12-37.54,0-75.09c0-2.69.93-4.06,3.78-3.75.17,0,.33,0,.5,0l16.19.86c.21,5.06.5,10.11.62,15.17.11,4.55,0,9.1,0,13.65Z"/><path class="cls-1" d="M512.87,80.5c1-4.9,2.08-9.66,3.13-14.56,5.26,1,9.91,2.07,14.63,2.69,2.59.34,5.53.53,7.89-.34,2.7-1,6-2.72,7.14-5,1.7-3.37-1-6.23-4-8.06-4.23-2.6-8.58-5-12.91-7.44a27.45,27.45,0,0,1-13.43-31.17,18.75,18.75,0,0,1,13.34-14.1A55.73,55.73,0,0,1,562,3c3,.94,3.65,2.54,3.13,5.55-1.9,11.07-1.78,11-13.06,9.72a39.09,39.09,0,0,0-10.42.16c-5.17.85-7.12,5.54-3.81,9.57,2.23,2.72,5.39,4.8,8.4,6.77,4.7,3.08,10,5.31,14.37,8.8,13.26,10.67,9.91,32.19-5.82,38.62-11.45,4.68-23.12,3.55-34.76.76C517.63,82.34,515.36,81.35,512.87,80.5Z"/><path class="cls-1" d="M205.51,43.29c0,12-.11,24,.06,36,.05,3.53-.85,5.17-4.73,4.87a76.77,76.77,0,0,0-11.45,0c-4.12.3-5-1.53-5-5.23q.18-36.28,0-72.56c0-3.87,1-5.43,5.08-5.06a50.89,50.89,0,0,0,9.95,0c4.71-.49,6.37,1,6.23,5.92C205.27,19.26,205.51,31.28,205.51,43.29Z"/><path class="cls-1" d="M73.53,42.82c0-12.18.15-24.36-.08-36.53-.08-4,1.21-5.27,5.13-4.95A75.45,75.45,0,0,0,90,1.35c3.62-.25,4.45,1.24,4.44,4.58q-.18,36.77,0,73.55c0,3.72-1.11,5-4.82,4.72a76.78,76.78,0,0,0-11.45,0c-3.85.29-4.79-1.3-4.74-4.86C73.64,67.17,73.53,55,73.53,42.82Z"/></g></g></svg>