<svg xmlns="http://www.w3.org/2000/svg" viewBox="0 0 1003.64 160.88"><g id="레이어_2" data-name="레이어 2"><g id="레이어_1-2" data-name="레이어 1"><path d="M120.15,160.34c-14.5,0-26.16.53-37.72-.35-3.12-.24-6.93-4.19-8.67-7.39-5.9-10.81-11.4-21.88-16.27-33.19-3-6.86-6.8-9.85-15.51-6.63,0,12.06-.32,24.64.11,37.19.28,8-2.72,11.25-10.87,10.56a90.23,90.23,0,0,0-18.59,0C2.07,161.87-.07,157,0,147.61Q.56,80.32,0,13C-.08,3.45,2.38-.45,12.75.14c21.64,1.24,43.49,0,65,2.3,25.37,2.68,36,14.26,39.94,39.57a100.49,100.49,0,0,1,.76,23.51C117,83.37,109,97.5,91.36,105.7ZM42.45,79c11.95-1.44,26,4.59,31.23-9,3.15-8.24,2.89-20.59-1.29-28.09-6.13-11-19.23-6.36-29.94-6.55Z"/><path d="M212.71,80.29c0-22.91.27-45.83-.15-68.74-.15-8.2,2-11.74,11-11.38,15.82.65,31.7-.29,47.52.38,36.23,1.53,54.51,17,59.27,53a215.29,215.29,0,0,1-.16,55c-4.28,33.46-21.5,48.91-55.19,51.32-18.16,1.3-36.48.32-54.73.6-7,.11-7.59-4-7.57-9.38C212.77,127.49,212.71,103.89,212.71,80.29Zm42.71-42.8v86.34c22.17,2.57,31.79-4,33.85-24.88a193.63,193.63,0,0,0-.38-39.84C286.88,40.88,274.35,33.36,255.42,37.49Z"/><path d="M185.17,80.5c0,23.28-.23,46.56.14,69.84.12,7.3-1.66,10.21-9.71,10.27-31.88.24-31.88.51-31.88-31.55,0-39,.2-78.06-.15-117.08C143.49,3.34,145.68-.79,155.15.2a117.81,117.81,0,0,0,20.66,0c7.26-.52,9.61,2.21,9.5,9.39C184.94,33.25,185.17,56.88,185.17,80.5Z"/><path d="M399.45,80.31c0,23.26-.25,46.52.13,69.77.13,8.06-2.59,11.18-10.79,10.47a121.71,121.71,0,0,0-20.65,0c-8.44.69-10.63-3.09-10.6-10.81q.33-69.27,0-138.53c-.06-8.61,3-11.72,11.51-11a88.66,88.66,0,0,0,18.57,0c10.15-1.26,12.2,3.45,12,12.38C399.14,35.15,399.45,57.73,399.45,80.31Z"/><path d="M580.67,109.36c1.13,20.38,16.43,33.39,36.79,31.93,7-.51,14.14-2.77,20.83-5.24,4.92-1.83,8.46-2.75,10.71,3.1,2,5.18,4.85,10.39-2.46,14-28.65,14.09-74.44,10.56-85.45-33.62a85.14,85.14,0,0,1,1.6-46.65c7.51-24.08,26.94-36.06,53.6-33.56C638,41.35,653.8,57.85,657,81.88c3.57,27.24,3.36,27.48-24,27.48Zm56.18-19c.38-20.67-10.08-32.8-27.68-32.73-18.09.07-28.93,12.23-28.81,32.73Z"/><path d="M745.39,109.36c1.3,24.16,23.45,37.41,49.35,30.31a32.11,32.11,0,0,0,7.66-3c5.37-3.13,9.32-3.39,12.13,3.37,2.59,6.25,3,10.84-4.53,13.89-22,8.89-44,10.65-63.9-3.76-21.86-15.77-24.61-39.43-21.35-63.73,3.89-28.9,19.83-45.36,43.37-47.2,32.07-2.51,53.2,16,54.28,48.91.82,24.87,2.18,20.95-20.3,21.17C783.21,109.51,764.31,109.36,745.39,109.36Zm56.6-19c.45-19.89-9.68-32-26.72-32.6-18.2-.68-29.59,11.34-30.4,32.6Z"/><path d="M484.62,160.88c-10.9-2.13-22.05-4.12-33.12-6.52-7.63-1.65-8.19-6.25-6-13.18,2.31-7.22,5.46-7.68,12.12-5.44,15.24,5.13,31,6.56,46.8,2.29,8.85-2.4,15.61-7.35,17.14-17.1,1.57-10-2.41-17.85-11-22.52-11.44-6.24-23.5-11.33-35.23-17.06C452.09,70,443.75,54.61,448,32c2.94-15.62,12.61-24.75,27.47-28.71,17.78-4.74,35.49-3.4,53,1.82,6.24,1.86,9.23,4.7,6.67,12-2.44,6.91-5.28,7.79-12.77,6.69-13.36-2-27.53-3.22-40.66-.9-16.1,2.85-20.09,22.9-7.38,33.44,6.2,5.14,14.19,8.19,21.46,12,9.12,4.8,18.75,8.76,27.4,14.27,15.95,10.15,21.37,25.33,18.2,43.56-3,17.29-14.49,26.68-30.85,30.59C502.22,158.76,493.6,159.5,484.62,160.88Z"/><path d="M838.8,95.84c.67-4.3,1.18-11.87,3.08-19.09,8.7-33,46.37-48.73,76.94-32.56,6.16,3.27,6.18,7.23,3.66,12.64-2,4.17-3.21,8.45-9.54,6.17-43.4-15.63-56.58,14.57-52.5,46.54,3.29,25.91,23.79,37.23,49.36,27.4,5.55-2.13,10.36-5.73,13.67,3.32,3,8.15.31,11.84-7.05,14.87C884.8,168.15,839.16,157.38,838.8,95.84Z"/><path d="M952.69,62.34c-7.26-3.65-18.93,2.85-18-12.09.86-14.37,12.06-5.94,18.67-10.79,0-6.05.3-13.16-.09-20.23s3-8.84,9.35-8.71c6,.11,10.15,1.05,9.8,8.38-.33,7.09-.07,14.21-.07,22.57,8.19,0,15.32.24,22.44-.06,7.67-.32,7.94,4.44,8,10.06s-1,9.41-7.79,9.22c-7.14-.21-14.29,0-22.13,0,0,23.14-.57,44.93.24,66.68.39,10.44,6.89,14.32,18.37,11.7,8-1.81,10.37,1,11.81,8.1,1.52,7.53-2.26,9.86-8.43,11.06-27,5.27-41.28-5.54-42.07-32.89C952.21,104.46,952.69,83.59,952.69,62.34Z"/><path d="M700.75,80.07c0,22.59-.22,45.18.12,67.76.11,7.43-2.2,10.47-10,10.4-7.41-.07-10.63-2.46-10.6-10.1q.25-68.28,0-136.55C680.2,4,683,1.26,690.55,1.27c7.3,0,10.5,2.11,10.35,10C700.47,34.21,700.75,57.14,700.75,80.07Z"/></g></g></svg>